<?xml version="1.0" encoding="utf-8"?>
<!-- Generator: Adobe Illustrator 22.1.0, SVG Export Plug-In . SVG Version: 6.00 Build 0)  -->
<svg version="1.1" id="图层_1" xmlns="http://www.w3.org/2000/svg" xmlns:xlink="http://www.w3.org/1999/xlink" x="0px" y="0px"
	 viewBox="0 0 28 28" style="enable-background:new 0 0 28 28;" xml:space="preserve">
<style type="text/css">
	.st0{opacity:0.6;fill:#D3E5FF;enable-background:new    ;}
</style>
<path class="st0" d="M25.1,16l2.5,1.4c0.3,0.2,0.4,0.5,0.3,0.8c-0.7,2-1.8,3.8-3.2,5.3c-0.2,0.2-0.6,0.3-0.9,0.1l-2.5-1.4
	c-1.1,0.9-2.3,1.5-3.6,2V27c0,0.3-0.2,0.6-0.6,0.7c-2.1,0.4-4.3,0.5-6.4,0c-0.3-0.1-0.6-0.3-0.6-0.7v-2.8c-1.3-0.4-2.5-1.1-3.6-2
	l-2.5,1.4c-0.3,0.2-0.6,0.1-0.9-0.1C1.8,22,0.7,20.2,0,18.2c-0.1-0.3,0-0.6,0.3-0.8L2.9,16c-0.3-1.3-0.3-2.7,0-4l-2.5-1.4
	C0.1,10.5-0.1,10.1,0,9.8c0.7-2,1.8-3.8,3.2-5.3c0.2-0.2,0.6-0.3,0.9-0.1l2.5,1.4c1.1-0.9,2.3-1.5,3.6-2V1c0-0.3,0.2-0.6,0.6-0.7
	c2.1-0.4,4.3-0.5,6.4,0c0.3,0.1,0.6,0.3,0.6,0.7v2.8c1.3,0.4,2.5,1.1,3.6,2l2.5-1.4c0.3-0.2,0.6-0.1,0.9,0.1C26.2,6,27.3,7.8,28,9.8
	c0.1,0.3,0,0.6-0.3,0.8L25.1,12C25.4,13.3,25.4,14.7,25.1,16L25.1,16z M15.9,21.2c4-1.1,6.3-5.2,5.3-9.1c-1.1-4-5.2-6.3-9.1-5.3
	c-4,1.1-6.3,5.2-5.3,9.1C7.9,19.9,12,22.3,15.9,21.2z"/>
</svg>
