<?xml version="1.0" encoding="utf-8"?>
<!-- Generator: Adobe Illustrator 21.0.0, SVG Export Plug-In . SVG Version: 6.00 Build 0)  -->
<svg version="1.1" id="图层_1" xmlns="http://www.w3.org/2000/svg" xmlns:xlink="http://www.w3.org/1999/xlink" x="0px" y="0px"
	 viewBox="0 0 24.5 21.5" style="enable-background:new 0 0 24.5 21.5;" xml:space="preserve">
<style type="text/css">
	.st0{opacity:0.749;fill:#03132C;stroke:#487AB5;enable-background:new    ;}
	.st1{opacity:0.8;fill:#98B7E0;enable-background:new    ;}
</style>
<path class="st0" d="M3.8,0.8h17c1.7,0,3,1.3,3,3v14c0,1.7-1.3,3-3,3h-17c-1.7,0-3-1.3-3-3v-14C0.8,2.1,2.1,0.8,3.8,0.8z"/>
<path class="st1" d="M10.1,5.1c-0.4,0.4-0.4,1.2,0,1.6l3.4,3.6c0.2,0.2,0.2,0.6,0,0.9l-3.4,3.6c-0.4,0.4-0.4,1.2,0,1.6
	c0.4,0.4,1.1,0.4,1.5,0l5-5.2c0.2-0.2,0.2-0.6,0-0.9l-5-5.2C11.2,4.6,10.5,4.6,10.1,5.1L10.1,5.1z"/>
</svg>
