<?xml version="1.0" encoding="utf-8"?>
<!-- Generator: Adobe Illustrator 22.1.0, SVG Export Plug-In . SVG Version: 6.00 Build 0)  -->
<svg version="1.1" id="图层_1" xmlns="http://www.w3.org/2000/svg" xmlns:xlink="http://www.w3.org/1999/xlink" x="0px" y="0px"
	 viewBox="0 0 34 28" style="enable-background:new 0 0 34 28;" xml:space="preserve">
<style type="text/css">
	.st0{opacity:0.85;fill:#6EAAFA;enable-background:new    ;}
	.st1{fill:#6EAAFA;}
	.st2{opacity:0.8;fill:#6EAAFA;enable-background:new    ;}
</style>
<path id="圆角矩形_3" class="st0" d="M2.1,8h5.2C8.3,8,9,8.7,9,9.6v14.1c0,0.9-0.7,1.7-1.7,1.7H2.1c-0.9,0-1.7-0.7-1.7-1.7V9.6
	C0.3,8.7,1,8,2.1,8z"/>
<path id="圆角矩形_3-2" class="st1" d="M14.4,13.2h5.2c0.9,0,1.7,0.7,1.7,1.7v8.7c0,0.9-0.7,1.7-1.7,1.7h-5.2
	c-0.9,0-1.7-0.7-1.7-1.7v-8.7C12.7,13.9,13.5,13.2,14.4,13.2z"/>
<path id="圆角矩形_3-3" class="st2" d="M26.7,2.6h5.2c0.9,0,1.7,0.7,1.7,1.7v19.3c0,0.9-0.7,1.7-1.7,1.7h-5.2
	c-0.9,0-1.7-0.7-1.7-1.7V4.4C25,3.3,25.8,2.6,26.7,2.6z"/>
</svg>
