<?xml version="1.0" encoding="utf-8"?>
<!-- Generator: Adobe Illustrator 21.0.0, SVG Export Plug-In . SVG Version: 6.00 Build 0)  -->
<svg version="1.1" id="图层_1" xmlns="http://www.w3.org/2000/svg" xmlns:xlink="http://www.w3.org/1999/xlink" x="0px" y="0px"
	 viewBox="0 0 34 34" style="enable-background:new 0 0 34 34;" xml:space="preserve">
<style type="text/css">
	.st0{fill:#7CB0E1;}
	.st1{fill:url(#SVGID_1_);}
</style>
<path class="st0" d="M17,34C7.6,34,0,26.4,0,17S7.6,0,17,0s17,7.6,17,17S26.4,34,17,34z M17.4,32.2c8-0.2,14.5-6.7,14.7-14.7h-3.5
	c-0.1,2.4-0.9,4.7-2.3,6.5c0.2,0.3,0.3,0.5,0.3,0.9c0,0.9-0.7,1.6-1.6,1.6c-0.3,0-0.6-0.1-0.8-0.3c-1.9,1.5-4.3,2.5-6.9,2.6V32.2z
	 M17.4,27.8c2.4-0.1,4.5-1,6.3-2.3c-0.1-0.2-0.2-0.4-0.2-0.7c0-0.9,0.7-1.6,1.6-1.6c0.2,0,0.4,0.1,0.6,0.1c1.2-1.7,2-3.7,2.1-5.9
	h-4.4c-0.2,3.2-2.8,5.8-6,6V27.8z M17.4,22.6c2.8-0.2,4.9-2.4,5.2-5.2h-5.2V22.6z M17.4,16.6h5.2c-0.2-2.8-2.4-4.9-5.2-5.2V16.6z
	 M17.4,10.5c3.2,0.2,5.8,2.8,6,6h4.4c-0.1-2.1-0.7-4-1.8-5.6c-0.5,0.3-1,0.5-1.6,0.5c-1.5,0-2.7-1.2-2.7-2.7c0-0.5,0.1-1,0.4-1.4
	c-1.4-0.7-2.9-1.2-4.6-1.2V10.5z M16.6,1.8C8.5,2.1,2.1,8.5,1.9,16.6h3.5c0.2-6.1,5.1-11,11.2-11.3V1.8z M16.6,6.2
	C10.9,6.4,6.4,10.9,6.2,16.6h4.4c0.1-1.7,0.9-3.2,2-4.3c0-0.1-0.1-0.2-0.1-0.3c0-0.7,0.5-1.2,1.2-1.2c0.3,0,0.6,0.1,0.8,0.3
	c0.6-0.3,1.3-0.5,2.1-0.5V6.2z M16.6,11.4c-0.6,0-1.1,0.2-1.6,0.4c0,0.1,0,0.1,0,0.1c0,0.7-0.5,1.2-1.2,1.2c-0.2,0-0.4-0.1-0.6-0.2
	c-1,0.9-1.6,2.2-1.7,3.6h5.2V11.4z M16.6,17.4h-5.2c0.2,2.8,2.4,4.9,5.2,5.2V17.4z M16.6,23.5c-3.2-0.2-5.8-2.8-6-6H6.2
	c0.1,2.4,1,4.7,2.4,6.4c0.3-0.2,0.6-0.4,1-0.4c1,0,1.7,0.8,1.7,1.7c0,0.3-0.1,0.6-0.2,0.8c1.6,1,3.4,1.7,5.4,1.7V23.5z M16.6,28.7
	c-2.2-0.1-4.3-0.8-6.1-2C10.2,26.9,10,27,9.6,27c-1,0-1.7-0.8-1.7-1.7c0-0.3,0.1-0.5,0.2-0.7c-1.6-1.9-2.6-4.4-2.7-7.1H1.9
	c0.2,8,6.7,14.5,14.7,14.7V28.7z M17,1.8C17,1.8,17,1.8,17,1.8L17,1.8C17,1.8,17,1.8,17,1.8z M17.4,1.8v3.5c1.9,0.1,3.6,0.6,5.1,1.4
	C23,6.3,23.7,6,24.4,6c1.5,0,2.7,1.2,2.7,2.7c0,0.6-0.2,1.1-0.5,1.6c1.2,1.8,2,3.9,2.1,6.2h3.5C31.9,8.5,25.4,2.1,17.4,1.8z
	 M32.2,17C32.2,17,32.2,17,32.2,17C32.2,17,32.2,17,32.2,17L32.2,17z"/>
<linearGradient id="SVGID_1_" gradientUnits="userSpaceOnUse" x1="-20.8527" y1="56.3532" x2="-20.8527" y2="57.3532" gradientTransform="matrix(33.986 0 0 -34.016 725.696 1950.9149)">
	<stop  offset="0" style="stop-color:#FFFFFF;stop-opacity:0.251"/>
	<stop  offset="1" style="stop-color:#FFFFFF"/>
</linearGradient>
<path class="st1" d="M17,34C7.6,34,0,26.4,0,17S7.6,0,17,0s17,7.6,17,17S26.4,34,17,34z M17.4,32.2c8-0.2,14.5-6.7,14.7-14.7h-3.5
	c-0.1,2.4-0.9,4.7-2.3,6.5c0.2,0.3,0.3,0.5,0.3,0.9c0,0.9-0.7,1.6-1.6,1.6c-0.3,0-0.6-0.1-0.8-0.3c-1.9,1.5-4.3,2.5-6.9,2.6V32.2z
	 M17.4,27.8c2.4-0.1,4.5-1,6.3-2.3c-0.1-0.2-0.2-0.4-0.2-0.7c0-0.9,0.7-1.6,1.6-1.6c0.2,0,0.4,0.1,0.6,0.1c1.2-1.7,2-3.7,2.1-5.9
	h-4.4c-0.2,3.2-2.8,5.8-6,6V27.8z M17.4,22.6c2.8-0.2,4.9-2.4,5.2-5.2h-5.2V22.6z M17.4,16.6h5.2c-0.2-2.8-2.4-4.9-5.2-5.2V16.6z
	 M17.4,10.5c3.2,0.2,5.8,2.8,6,6h4.4c-0.1-2.1-0.7-4-1.8-5.6c-0.5,0.3-1,0.5-1.6,0.5c-1.5,0-2.7-1.2-2.7-2.7c0-0.5,0.1-1,0.4-1.4
	c-1.4-0.7-2.9-1.2-4.6-1.2V10.5z M16.6,1.8C8.5,2.1,2.1,8.5,1.9,16.6h3.5c0.2-6.1,5.1-11,11.2-11.3V1.8z M16.6,6.2
	C10.9,6.4,6.4,10.9,6.2,16.6h4.4c0.1-1.7,0.9-3.2,2-4.3c0-0.1-0.1-0.2-0.1-0.3c0-0.7,0.5-1.2,1.2-1.2c0.3,0,0.6,0.1,0.8,0.3
	c0.6-0.3,1.3-0.5,2.1-0.5V6.2z M16.6,11.4c-0.6,0-1.1,0.2-1.6,0.4c0,0.1,0,0.1,0,0.1c0,0.7-0.5,1.2-1.2,1.2c-0.2,0-0.4-0.1-0.6-0.2
	c-1,0.9-1.6,2.2-1.7,3.6h5.2V11.4z M16.6,17.4h-5.2c0.2,2.8,2.4,4.9,5.2,5.2V17.4z M16.6,23.5c-3.2-0.2-5.8-2.8-6-6H6.2
	c0.1,2.4,1,4.7,2.4,6.4c0.3-0.2,0.6-0.4,1-0.4c1,0,1.7,0.8,1.7,1.7c0,0.3-0.1,0.6-0.2,0.8c1.6,1,3.4,1.7,5.4,1.7V23.5z M16.6,28.7
	c-2.2-0.1-4.3-0.8-6.1-2C10.2,26.9,10,27,9.6,27c-1,0-1.7-0.8-1.7-1.7c0-0.3,0.1-0.5,0.2-0.7c-1.6-1.9-2.6-4.4-2.7-7.1H1.9
	c0.2,8,6.7,14.5,14.7,14.7V28.7z M17,1.8C17,1.8,17,1.8,17,1.8L17,1.8C17,1.8,17,1.8,17,1.8z M17.4,1.8v3.5c1.9,0.1,3.6,0.6,5.1,1.4
	C23,6.3,23.7,6,24.4,6c1.5,0,2.7,1.2,2.7,2.7c0,0.6-0.2,1.1-0.5,1.6c1.2,1.8,2,3.9,2.1,6.2h3.5C31.9,8.5,25.4,2.1,17.4,1.8z
	 M32.2,17C32.2,17,32.2,17,32.2,17C32.2,17,32.2,17,32.2,17L32.2,17z"/>
</svg>
