<?xml version="1.0" encoding="utf-8"?>
<!-- Generator: Adobe Illustrator 21.0.0, SVG Export Plug-In . SVG Version: 6.00 Build 0)  -->
<svg version="1.1" id="图层_1" xmlns="http://www.w3.org/2000/svg" xmlns:xlink="http://www.w3.org/1999/xlink" x="0px" y="0px"
	 viewBox="0 0 28 28" style="enable-background:new 0 0 28 28;" xml:space="preserve">
<style type="text/css">
	.st0{opacity:0.8;fill:#D3E5FF;enable-background:new    ;}
	.st1{opacity:0.702;fill:#D3E5FF;enable-background:new    ;}
	.st2{fill:#D3E5FF;}
	.st3{opacity:0.502;fill:#D3E5FF;enable-background:new    ;}
	.st4{opacity:0.902;fill:#D3E5FF;enable-background:new    ;}
	.st5{opacity:0.302;fill:#D3E5FF;enable-background:new    ;}
	.st6{opacity:0.6;fill:#D3E5FF;enable-background:new    ;}
</style>
<path class="st0" d="M15.7,28h-3.3c-1.4,0-2.5-1.1-2.5-2.5v-3.3c0-1.4,1.1-2.5,2.5-2.5h3.3c1.4,0,2.5,1.1,2.5,2.5v3.3
	C18.1,26.9,17,28,15.7,28z"/>
<path class="st1" d="M15.7,9.9h-3.3c-1.4,0-2.5,1.1-2.5,2.5v3.3c0,1.4,1.1,2.5,2.5,2.5h3.3c1.4,0,2.5-1.1,2.5-2.5v-3.3
	C18.1,11,17,9.9,15.7,9.9"/>
<path class="st2" d="M15.7,8.3h-3.3c-1.4,0-2.5-1.1-2.5-2.5V2.5C9.9,1.1,11,0,12.3,0h3.3c1.4,0,2.5,1.1,2.5,2.5v3.3
	C18.1,7.2,17,8.3,15.7,8.3z"/>
<path class="st3" d="M5.8,19.7H2.5c-1.4,0-2.5,1.1-2.5,2.5v3.3C0,26.9,1.1,28,2.5,28h3.3c1.4,0,2.5-1.1,2.5-2.5v-3.3
	C8.3,20.8,7.1,19.7,5.8,19.7"/>
<path class="st4" d="M5.8,18.1H2.5C1.1,18.1,0,17,0,15.7v-3.3C0,11,1.1,9.9,2.5,9.9h3.3c1.4,0,2.5,1.1,2.5,2.5v3.3
	C8.3,17,7.1,18.1,5.8,18.1z"/>
<path class="st0" d="M5.8,0H2.5C1.1,0,0,1.1,0,2.5v3.3c0,1.4,1.1,2.5,2.5,2.5h3.3c1.4,0,2.5-1.1,2.5-2.5V2.5C8.3,1.1,7.1,0,5.8,0"/>
<path class="st5" d="M25.5,19.7h-3.3c-1.4,0-2.5,1.1-2.5,2.5v3.3c0,1.4,1.1,2.5,2.5,2.5h3.3c1.4,0,2.5-1.1,2.5-2.5v-3.3
	C28,20.8,26.9,19.7,25.5,19.7"/>
<path class="st2" d="M25.5,18.1h-3.3c-1.4,0-2.5-1.1-2.5-2.5v-3.3c0-1.4,1.1-2.5,2.5-2.5h3.3c1.4,0,2.5,1.1,2.5,2.5v3.3
	C28,17,26.9,18.1,25.5,18.1z"/>
<path class="st6" d="M25.5,0h-3.3c-1.4,0-2.5,1.1-2.5,2.5v3.3c0,1.4,1.1,2.5,2.5,2.5h3.3c1.4,0,2.5-1.1,2.5-2.5V2.5
	C28,1.1,26.9,0,25.5,0"/>
</svg>
